<svg xmlns="http://www.w3.org/2000/svg" version="1.1" xmlns:xlink="http://www.w3.org/1999/xlink" xmlns:svgjs="http://svgjs.com/svgjs" width="1440" height="560" preserveAspectRatio="none" viewBox="0 0 1440 560">
    <g mask="url(&quot;#SvgjsMask1009&quot;)" fill="none">
        <rect width="1440" height="560" x="0" y="0" fill="rgba(255, 255, 255, 1)"></rect>
        <path d="M -810.2497650744663,153 C -714.25,198 -522.25,357.6 -330.24976507446627,378 C -138.25,398.4 -42.25,238.6 149.75023492553373,255 C 341.75,271.4 437.75,481.8 629.7502349255337,460 C 821.75,438.2 947.7,158.4 1109.7502349255337,146 C 1271.8,133.6 1373.95,347.6 1440,398" stroke="rgba(51, 121, 194, 0.58)" stroke-width="2"></path>
        <path d="M -837.3020904902547,439 C -741.3,377.6 -549.3,159.8 -357.3020904902547,132 C -165.3,104.2 -69.3,308.8 122.69790950974527,300 C 314.7,291.2 410.7,76.8 602.6979095097453,88 C 794.7,99.2 915.24,327.2 1082.6979095097454,356 C 1250.16,384.8 1368.54,256.8 1440,232" stroke="rgba(51, 121, 194, 0.58)" stroke-width="2"></path>
        <path d="M -770.4102729762304,74 C -674.41,144.4 -482.41,409.6 -290.41027297623043,426 C -98.41,442.4 -2.41,149.4 189.58972702376957,156 C 381.59,162.6 477.59,435.4 669.5897270237696,459 C 861.59,482.6 995.51,292.2 1149.5897270237697,274 C 1303.67,255.8 1381.92,349.2 1440,368" stroke="rgba(51, 121, 194, 0.58)" stroke-width="2"></path>
        <path d="M -75.81222690692238,374 C 20.19,352.8 212.19,260.2 404.1877730930776,268 C 596.19,275.8 692.19,452.4 884.1877730930776,413 C 1076.19,373.6 1172.19,61.8 1364.1877730930776,71 C 1556.19,80.2 1829.03,418.2 1844.1877730930776,459 C 1859.35,499.8 1520.84,311.8 1440,275" stroke="rgba(51, 121, 194, 0.58)" stroke-width="2"></path>
    </g>
    <defs>
        <mask id="SvgjsMask1009">
            <rect width="1440" height="560" fill="#ffffff"></rect>
        </mask>
    </defs>
</svg>