<svg xmlns="http://www.w3.org/2000/svg" version="1.1" xmlns:xlink="http://www.w3.org/1999/xlink" xmlns:svgjs="http://svgjs.com/svgjs" width="1440" height="560" preserveAspectRatio="none" viewBox="0 0 1440 560">
    <g mask="url(&quot;#SvgjsMask1003&quot;)" fill="none">
        <rect width="1440" height="560" x="0" y="0" fill="rgba(247, 144, 144, 1)"></rect>
        <path d="M -144.6579240928657,407 C -48.66,346.8 143.34,123.6 335.3420759071343,106 C 527.34,88.4 623.34,287.8 815.3420759071344,319 C 1007.34,350.2 1103.34,247.8 1295.3420759071344,262 C 1487.34,276.2 1746.41,400 1775.3420759071344,390 C 1804.27,380 1507.07,247.6 1440,212" stroke="rgba(194, 51, 51, 0.58)" stroke-width="2"></path>
        <path d="M -50.11616180805299,338 C 45.88,287.4 237.88,70.4 429.883838191947,85 C 621.88,99.6 717.88,414 909.883838191947,411 C 1101.88,408 1197.88,92.4 1389.883838191947,70 C 1581.88,47.6 1859.86,292.8 1869.883838191947,299 C 1879.91,305.2 1525.98,140.6 1440,101" stroke="rgba(194, 51, 51, 0.58)" stroke-width="2"></path>
        <path d="M -745.3188866159473,263 C -649.32,271.2 -457.32,318.6 -265.31888661594735,304 C -73.32,289.4 22.68,178.8 214.68111338405265,190 C 406.68,201.2 502.68,346.6 694.6811133840527,360 C 886.68,373.4 1025.62,241.6 1174.6811133840527,257 C 1323.74,272.4 1386.94,401 1440,437" stroke="rgba(194, 51, 51, 0.58)" stroke-width="2"></path>
        <path d="M -709.2344660910976,446 C -613.23,378.8 -421.23,105.4 -229.23446609109754,110 C -37.23,114.6 58.77,442.6 250.76553390890246,469 C 442.77,495.4 538.77,249.4 730.7655339089024,242 C 922.77,234.6 1068.92,450.4 1210.7655339089024,432 C 1352.61,413.6 1394.15,206.4 1440,150" stroke="rgba(194, 51, 51, 0.58)" stroke-width="2"></path>
    </g>
    <defs>
        <mask id="SvgjsMask1003">
            <rect width="1440" height="560" fill="#ffffff"></rect>
        </mask>
    </defs>
</svg>